<svg width="150" height="80" viewBox="0 0 150 80" fill="none" xmlns="http://www.w3.org/2000/svg">
<path d="M121.436 64.0617L121.054 63.9854L120.748 64.2145L120.595 64.4436C120.519 64.4436 120.351 64.4741 120.29 64.5963C120.214 64.7491 120.29 64.9018 120.214 64.9782C120.153 65.0393 120.188 65.2583 120.214 65.3601V65.742L119.908 65.9711L119.679 66.0475L119.297 66.4293L119.068 66.964L118.915 67.4222L119.374 67.6513V68.0332V68.4151L119.221 68.7206H118.839V69.0261L119.068 69.408L119.45 69.5607L119.755 69.7898L119.832 70.019V70.2481L119.755 70.3245H119.221C119.099 70.3245 119.17 70.4263 119.221 70.4772L119.374 70.7827H119.755H120.214H120.748L121.054 70.9355L121.283 71.1646L121.741 71.5465H121.97L122.276 71.3937V71.0882H122.581L122.81 71.1646L122.887 71.3937L123.192 71.4701L123.269 71.3173L123.498 71.3937L123.803 71.5465L124.109 71.3937L124.491 71.0882L124.643 70.7827V70.4772L124.873 70.1717V69.7898C124.873 69.7287 124.771 69.5607 124.72 69.4843L124.643 69.0261L124.873 68.7206L125.102 68.4151V68.0332V67.4986V67.2695L124.873 66.964L124.643 66.7348L124.262 66.5821L124.032 66.353L123.727 66.0475L123.345 65.8947H123.04L122.887 65.5892H122.658L122.581 65.3601V64.9782H122.429L122.276 64.8255V64.4436H121.97L121.741 64.2145L121.436 64.0617Z" fill="#CECECE"/>
<path fill-rule="evenodd" clip-rule="evenodd" d="M113.493 5.57536L113.646 5.42261V5.26986V5.11711H113.493L112.347 4.04786L112.424 3.81874H112.729V3.43686L112.653 2.97861L112.347 2.36762L111.736 1.83299L110.82 1.37475H110.056H109.598H109.292L109.14 1.222H108.605L108.376 1.06925H107.459L107.307 0.916497H106.237L106.085 0.763747H105.703L105.474 0.610998H104.404H103.946L103.641 0.458248H102.724L102.571 0.305499L102.419 0.152749H101.273H100.127H99.2108H98.9817L98.7525 0H98.2179H95.4684L95.2393 0.0763747H94.4756H93.4063L93.0244 0.152749L92.2607 0.229124L91.0387 0.381874L89.9695 0.534623L89.7403 0.610998L89.5112 0.840122H89.053H88.2892L88.1365 0.992872H87.6018L86.3798 1.222L85.2342 1.52749L83.9358 1.90937L83.6303 2.06212L82.6375 2.29124L82.0265 2.44399L80.8809 2.74949L80.0407 3.05499L78.8951 3.43686L78.5896 3.58961L77.444 3.89511L76.9857 3.97149L76.6039 4.27699L76.3747 4.35336H76.0692H75.611L75.3055 4.58248L75 4.65886H74.6945L74.3126 4.88798L73.8544 5.11711L73.0906 5.34623L71.8686 5.88085L69.6538 6.79735L68.3554 7.2556L67.9735 7.48472L67.5917 7.5611L65.1477 8.78309L64.5367 9.01222L64.002 9.24134L63.8493 9.39409H63.5438L63.2383 9.54684L62.3982 10.0051L61.6344 10.387L61.1762 10.6925L60.7943 10.8452L60.4124 11.1507L60.0305 11.3035L59.6487 11.4562L58.6558 12.22L58.2739 12.0672L58.0448 12.2963L57.6629 12.7546L57.2047 12.9073L56.0591 13.3656L54.8371 14.053L52.0876 15.9623H51.7057L51.4002 16.2678L50.5601 16.7261L50.0255 17.0316L49.4145 17.4134L49.0326 17.7953H48.4216L48.0397 18.1772L47.7342 18.4063L47.1232 18.7882L45.2138 19.9338L44.1446 20.6976L43.61 20.9267L43.3809 21.2322L42.999 21.3086L42.388 21.9195L40.4786 23.2179H40.0204L39.8676 23.5998L39.4094 23.7525L38.4929 24.5927L37.7291 25.0509H37.1181V25.5092L35.9725 26.1965L33.7576 27.5713L32.9175 28.1823L32.2301 28.5642L31.4664 29.3279H30.8554V29.9389L30.3208 30.168L29.4043 30.9318L28.8697 31.1609L28.6405 31.5428L27.2658 32.2301L26.502 32.9175L23.9817 34.8269L22.7597 35.667L22.6069 35.8961L21.9959 36.1252L21.4613 36.8126H20.8503L20.2393 37.7291L19.5519 37.9582L18.4827 39.2566L17.7953 39.5621L15.7332 41.6242L15.4277 42.0061L14.053 43.3045L13.442 43.61L12.0672 44.832L10.6161 46.2831L9.39409 47.5815L9.01222 48.1161L8.24847 48.498L7.8666 49.3381L7.63747 49.5672L6.49185 50.5601V51.0183L5.11711 52.3167L4.27699 53.3859V53.6914L3.43686 54.6843L3.20774 55.3717L2.97862 56.3646L2.36762 56.9756L2.06212 58.1975L1.29837 59.2668L0.840122 60.4888V61.0234L0.381874 62.3982V63.2383L0 64.3075V65.224L0.381874 67.057L0.610998 68.2026L0.840122 69.1955L1.29837 69.9593L2.06212 70.8758L3.43686 72.1741L4.58248 73.0906L6.0336 74.1599L7.10285 74.6181L7.63747 75.1527L8.85947 75.3055L9.39409 75.611H10.6161L11.6853 75.9165H12.22L13.2892 76.222L14.053 76.6039C14.2821 76.7057 14.7862 76.8941 14.9694 76.833C15.1528 76.7719 15.6568 76.6548 15.8859 76.6039L17.0316 77.3676L18.3299 77.5204H20.2393L21.2322 78.2841H24.2872H27.8004H30.8554L34.5214 79.0479L37.6527 78.2841L41.0896 77.8259L44.2974 77.5204L49.1853 76.833L53.8442 76.222L57.9684 75.3055L63.8493 74.1599L67.2861 73.3961L70.9521 72.2505L73.3198 71.5631L76.3747 70.7994L79.888 69.9593L84.776 68.2026L87.9837 66.9806L91.7261 65.7586L94.3228 64.4603L96.7668 63.7729L99.4399 62.3982L101.578 61.558L103.411 61.1762L106.39 60.2597L109.369 59.0377L110.896 57.4338L111.736 56.5937H114.715H118.686H124.414L125.713 56.1354H126.553L127.699 55.6772H128.997L130.372 55.1426H131.976L132.968 54.6843H134.725H135.489L136.558 54.3788H137.398L138.009 54.6843H139.231L140.53 55.1426L142.286 54.6843L143.508 53.9969H145.57L146.334 53.0804H147.48L149.007 52.3167H150V51.6293H149.007H147.861H146.792L147.48 51.0947H147.861L147.48 50.5601H146.334H144.959L144.119 50.7128H143.279L141.904 50.8656H141.141L140.835 50.7128H139.995H139.078L136.94 50.5601H135.794L135.183 50.4073H131.135H127.393H121.894L121.207 50.4837L120.214 50.2546L118.534 50.1782H116.319H115.326L115.784 48.5743V47.276L115.326 45.7485L114.715 44.2973L113.951 42.6935L113.035 41.0896L111.889 39.8676L111.278 39.333L110.667 38.6456L110.209 38.2637L109.751 37.8819L109.063 37.3472L108.605 37.0417L107.765 36.6599L106.848 36.278L106.161 35.8961L105.855 35.9725L105.626 35.8198L105.474 35.667L105.015 35.5906H104.71H104.525L104.175 35.4379L103.793 35.1324L103.411 34.8269L103.106 34.7505L102.724 34.5214L102.495 34.3686L101.884 34.2159L101.578 34.1395H100.967L100.433 34.0631H99.9745L99.4399 33.9868H98.8289H98.2179L97.836 33.9104L97.3778 33.834H96.7668H95.7739L94.6283 33.9104L93.4827 33.9868L92.6426 34.0631L91.7261 34.1395L90.5804 34.2159L89.4348 34.3686L88.4419 34.5214L86.9145 34.8269L85.387 35.1324L84.3177 35.4379L82.7902 35.8198L81.2627 36.278L79.888 36.6599L78.7424 37.0417L77.5204 37.5764L76.3747 38.0346L75.3819 38.4165L74.0835 39.0275L73.0143 39.5621L72.0978 39.7149L70.9521 40.4022L70.1884 40.9369L69.1955 41.7006L68.3554 42.4644L67.5153 43.3045L66.5988 44.2973L65.6823 45.443V46.054V47.0468V48.1925L65.3768 48.8035V49.4908V50.6365V51.4002L65.6823 52.3167L66.0641 53.0804L66.5988 53.6151L67.2861 53.9969L67.8971 54.3024L68.6609 54.6079L69.5774 54.7607L70.4175 54.9898L72.0978 55.3717L73.7016 55.7536L76.3747 56.1354L77.9786 56.4409L79.5825 56.6701L81.11 56.5937L81.9501 56.6701L83.0957 56.1354L84.0122 56.8228H85.387H87.9837H90.5804H93.1008H95.1629L96.7668 56.6701L94.8574 57.6629L93.1008 58.503L91.2678 59.0377L88.8238 59.9542L86.3035 60.5652L83.6303 61.558L80.5754 62.3982L77.9786 63.1619L75.611 63.7729L73.0906 64.4603L70.3411 65.0713L67.8208 65.7586L65.6059 66.3696L63.8493 66.6751L62.6273 66.9806L61.1762 67.2861L60.0305 67.5153L58.7322 67.7444L56.8228 68.2026L54.8371 68.7373L52.8513 69.1955L49.6436 69.7301L47.9633 70.112L46.054 70.3411L43.4572 70.7994L40.8605 71.1813L37.6527 71.5631L34.5214 71.8686L32.0774 72.0977L29.1752 72.2505H26.5784H23.2943H19.5519L18.7882 72.1741L18.1008 71.8686L17.6426 71.5631L17.4134 71.334L17.3371 71.1813H17.0316H16.6497H15.8859L14.9694 70.8758H14.053L13.5183 70.6466L12.9837 70.5703L12.4491 70.4175L11.6853 70.1884L11.3035 69.9593L11.0743 69.8065L10.5397 69.7301L10.3106 69.501L9.77597 69.2719L8.85947 68.5845L8.24847 68.1263L7.71385 67.5916L7.40835 66.9806V66.6751L7.10285 66.5224V65.7586L6.9501 65.0713L7.10285 63.7729V63.0092L7.40835 62.3982L7.71385 61.4053L8.09572 60.5652L8.40122 59.9542L8.85947 58.9613L9.39409 57.7393L10.0815 56.5937L10.8452 55.6008L11.5326 54.7607L11.6853 54.3024L12.6782 53.3859L13.5183 52.8513V52.3167L14.6639 51.4002L14.9694 51.0183L15.6568 50.5601L16.6497 49.3381L16.9552 49.109L17.3371 48.9562L18.0244 48.498L18.7118 47.887L19.3228 47.3523L20.0866 46.665L20.6212 46.1303L21.2322 45.9012L22.0723 44.9847L22.4542 44.832L22.836 44.6028L23.447 44.0682L24.2872 43.3045L25.4328 42.5407L26.4257 42.0061L27.3422 40.9369L27.8004 40.555L28.2587 40.3259L29.3279 39.5621L30.8554 38.4165L32.2301 37.1945L33.7576 36.4307L35.5906 34.8269L37.6527 33.6049L39.5621 32.2301L41.3187 30.9318L43.9155 29.3279L45.5957 28.1823L46.9705 27.5713L48.1925 26.502L49.4908 25.5092L51.1711 24.5927L53.9206 23.2179L57.2047 20.9267L60.7943 18.7882L64.7658 17.0316L66.5988 15.9623L67.5153 15.1986L69.1955 14.053L72.0978 13.3656L75.3819 12.0672L78.7424 10.8452L82.6375 9.54684L86.3035 8.78309L89.053 7.94297L92.2607 7.5611H95.2393L97.3778 7.2556H98.7525H101.273L102.724 6.79735L105.855 7.2556L108.376 7.48472C109.216 7.35743 110.896 7.1945 110.896 7.5611C110.896 7.9277 111.1 7.51018 111.202 7.2556H112.118L112.729 7.10285L113.34 6.26273L113.493 5.57536ZM73.3193 47.2766L73.7012 46.6656L74.9232 45.7491L76.3743 45.0617L77.9782 44.298L79.5821 43.6106L81.1096 43.1524L83.0953 42.465L84.7756 42.0831L86.6849 41.7012L88.4415 41.3194L89.969 41.0902L91.2674 40.9375H92.6422L94.0933 41.0902H95.7735L97.3774 41.3194L99.4395 41.7012L100.967 42.0831L102.494 42.6941L104.175 43.6106L105.473 44.7562L106.39 46.0546L106.619 47.0475L106.848 48.1931V49.4915L106.39 49.7206H102.494L95.1625 49.4915L90.2745 49.3387H85.3865L84.5464 48.8041L83.2481 48.9568H82.7898L80.5749 48.8041L78.7419 48.575L77.3672 48.4222L75.9925 48.1931L74.9232 47.8112L73.3193 47.2766Z" fill="#CECECE"/>
</svg>
